<?xml version="1.0" encoding="utf-8"?>
<!-- Generator: Adobe Illustrator 23.0.3, SVG Export Plug-In . SVG Version: 6.00 Build 0)  -->
<svg version="1.1" id="图层_1" xmlns="http://www.w3.org/2000/svg" xmlns:xlink="http://www.w3.org/1999/xlink" x="0px" y="0px"
	 viewBox="0 0 24 24" style="enable-background:new 0 0 24 24;" xml:space="preserve">
<path d="M19,9h-8c-0.9-1.2-2.3-2-4-2c-2.8,0-5,2.2-5,5s2.2,5,5,5c1.6,0,3.1-0.8,4-2h8c1.7,0,3-1.3,3-3S20.7,9,19,9z M19,13h-7.1
	c0.1-0.3,0.1-0.7,0.1-1s0-0.7-0.1-1H19c0.5,0,1,0.4,1,1S19.5,13,19,13z"/>
</svg>
